<?xml version="1.0" standalone="no"?>
<!DOCTYPE svg PUBLIC "-//W3C//DTD SVG 20010904//EN"
 "http://www.w3.org/TR/2001/REC-SVG-20010904/DTD/svg10.dtd">
<svg version="1.0" xmlns="http://www.w3.org/2000/svg"
 width="300.000000pt" height="300.000000pt" viewBox="0 0 300.000000 300.000000"
 preserveAspectRatio="xMidYMid meet">
<metadata>
Created by potrace 1.14, written by Peter Selinger 2001-2017
</metadata>
<g transform="translate(0.000000,300.000000) scale(0.100000,-0.100000)"
fill="#000000" stroke="none">
<path d="M1441 2960 c-17 -17 -31 -28 -31 -25 0 3 -8 -3 -18 -12 -11 -10 -17
-21 -15 -25 2 -5 -3 -8 -11 -8 -9 0 -16 -5 -16 -12 0 -6 -3 -9 -6 -5 -6 6 -17
-1 -54 -35 -10 -9 -21 -14 -23 -11 -3 2 -17 -3 -31 -12 -14 -10 -26 -14 -26
-10 0 4 -7 2 -15 -5 -8 -6 -19 -9 -25 -5 -5 3 -10 1 -10 -6 0 -7 -3 -9 -6 -6
-4 3 -15 2 -25 -4 -12 -6 -19 -6 -19 0 0 5 -9 7 -20 4 -11 -3 -17 -10 -13 -17
4 -7 1 -6 -9 1 -8 7 -18 10 -22 6 -4 -4 -11 -1 -16 7 -6 8 -10 10 -10 4 0 -6
-7 -11 -15 -11 -8 0 -15 4 -15 8 0 4 -9 6 -20 4 -11 -2 -20 0 -20 5 0 5 -7 7
-15 4 -9 -4 -15 0 -15 7 0 11 -3 11 -10 -1 -6 -10 -10 -11 -10 -2 0 6 -9 12
-21 12 -11 0 -18 4 -14 9 3 6 -4 8 -15 6 -11 -2 -20 0 -20 5 0 7 -35 23 -50
23 -3 0 -10 7 -17 17 -7 9 -26 23 -43 30 -16 7 -30 16 -30 20 0 4 -11 12 -25
18 -19 9 -27 8 -38 -3 -8 -8 -17 -11 -21 -8 -6 6 -10 -12 -7 -30 1 -5 -3 -6
-8 -3 -5 4 -25 -8 -43 -26 -18 -18 -36 -32 -40 -30 -5 1 -8 -3 -8 -9 0 -12
-30 -44 -30 -32 -1 4 -7 -3 -15 -17 -7 -14 -16 -24 -19 -22 -7 3 -27 -12 -63
-48 -14 -14 -29 -24 -34 -23 -5 2 -9 -2 -9 -7 0 -6 -11 -22 -25 -36 -14 -14
-25 -22 -25 -20 0 3 -14 -9 -31 -27 -17 -17 -35 -31 -40 -30 -5 2 -8 -3 -6
-10 1 -6 -4 -11 -12 -9 -9 2 -11 -3 -7 -13 3 -9 6 -19 6 -21 0 -2 7 -4 15 -4
8 0 15 -4 15 -9 0 -4 11 -7 25 -6 16 2 25 -2 25 -11 0 -8 7 -14 16 -14 8 0 12
-4 9 -10 -3 -5 -2 -10 2 -10 5 0 14 -9 21 -21 11 -17 11 -20 0 -13 -7 4 -4 -3
7 -16 12 -14 14 -20 5 -15 -12 7 -13 6 -3 -6 6 -8 10 -35 9 -61 -1 -28 3 -48
9 -48 6 0 7 -3 0 -8 -5 -4 -11 -16 -12 -27 -2 -11 -4 -30 -5 -42 -1 -13 -6
-23 -10 -23 -4 0 -8 -9 -8 -20 0 -23 -32 -82 -60 -112 -11 -12 -20 -26 -20
-31 0 -5 -9 -22 -21 -38 -11 -16 -18 -33 -15 -38 4 -5 2 -11 -4 -13 -6 -2 -12
-14 -15 -28 -3 -14 -9 -26 -14 -28 -6 -2 -7 -10 -4 -18 3 -8 1 -14 -4 -14 -6
0 -9 -13 -8 -30 1 -16 -2 -27 -6 -25 -4 3 -9 -2 -13 -10 -3 -8 0 -15 7 -15 8
0 8 -3 -2 -9 -8 -5 -11 -16 -8 -25 4 -9 3 -16 -2 -16 -10 0 -10 -9 -14 -147
-1 -61 1 -109 6 -106 4 2 7 1 8 -4 1 -4 3 -26 5 -47 1 -22 9 -43 16 -47 7 -5
9 -9 3 -9 -5 0 -3 -5 5 -10 12 -8 12 -10 1 -10 -12 0 -12 -3 1 -17 17 -20 32
-54 30 -65 -1 -5 3 -8 9 -8 5 0 7 -4 4 -10 -3 -5 -2 -10 3 -10 5 0 15 -13 22
-30 7 -16 16 -27 21 -24 8 5 13 -9 10 -28 0 -4 8 -10 19 -13 18 -6 25 -17 21
-38 -1 -5 2 -6 7 -3 4 2 13 -4 20 -15 9 -14 9 -19 0 -19 -6 0 -9 -3 -5 -6 3
-4 -11 -22 -31 -42 -20 -19 -30 -32 -22 -28 8 4 7 1 -3 -7 -10 -9 -25 -24 -34
-34 -8 -10 -11 -12 -7 -4 5 9 3 12 -4 7 -7 -4 -12 -14 -12 -22 0 -8 -5 -14
-11 -14 -5 0 -7 -5 -4 -10 3 -6 0 -10 -9 -10 -8 0 -24 -16 -36 -35 -20 -33
-39 -50 -25 -22 4 6 -3 1 -14 -13 -25 -30 -27 -50 -5 -50 8 0 12 -4 9 -10 -3
-5 1 -10 10 -10 9 0 23 -7 32 -15 8 -8 19 -13 23 -10 5 3 8 -8 7 -24 -1 -16
-4 -29 -7 -28 -3 1 -6 -2 -7 -6 -1 -5 -9 -14 -19 -21 -9 -7 -14 -18 -10 -24 5
-8 1 -10 -10 -5 -12 4 -15 3 -10 -5 4 -7 2 -12 -3 -12 -6 0 -11 -7 -11 -15 0
-8 -5 -15 -10 -15 -6 0 -15 -11 -20 -25 -5 -14 -14 -25 -20 -25 -6 0 -8 -4 -5
-10 3 -5 -1 -10 -9 -10 -9 0 -16 -5 -16 -11 0 -5 6 -7 12 -4 7 4 2 -2 -11 -13
-28 -22 -23 -34 19 -52 16 -7 30 -17 30 -22 0 -6 9 -8 20 -5 11 3 18 1 15 -3
-5 -8 34 -35 45 -32 14 5 39 -11 34 -20 -4 -6 -2 -8 4 -4 6 3 14 2 17 -4 4 -6
16 -8 27 -4 14 4 18 2 14 -5 -6 -10 6 -15 27 -12 4 0 7 -3 7 -9 0 -5 9 -10 20
-10 11 0 20 -4 20 -8 0 -4 10 -8 22 -9 11 -1 24 -6 27 -10 3 -5 13 -8 21 -8 8
0 21 -5 28 -12 8 -7 18 -11 23 -8 5 4 9 1 9 -6 0 -7 3 -10 6 -6 4 3 19 0 35
-9 16 -8 29 -12 29 -9 0 3 10 0 23 -7 12 -7 24 -13 27 -14 3 0 12 -3 20 -7 8
-3 33 -11 55 -18 22 -6 45 -16 52 -21 7 -6 13 -4 16 4 4 10 6 10 6 1 1 -7 12
-13 25 -13 14 0 27 -4 31 -10 3 -5 12 -7 19 -4 7 3 21 -2 30 -11 12 -12 16
-13 16 -3 0 8 3 9 8 3 4 -6 14 -10 22 -10 8 1 20 -1 25 -4 6 -3 17 -7 25 -8
28 -6 85 -15 98 -16 6 0 12 -5 12 -11 0 -6 5 -4 10 4 5 8 10 10 10 5 0 -10 34
-16 98 -18 12 -1 22 -4 22 -7 0 -4 18 -6 39 -6 22 1 37 -2 35 -6 -3 -5 128 -8
290 -8 170 0 296 4 296 9 0 5 10 7 22 3 11 -3 19 -1 16 4 -4 5 13 9 35 10 52
1 88 7 105 17 7 5 12 3 12 -5 0 -10 3 -9 10 2 5 8 12 11 16 7 4 -4 13 -2 21 4
7 6 13 8 13 4 0 -4 8 -1 17 6 14 12 16 12 8 0 -6 -11 -5 -12 6 -5 8 4 20 10
27 11 6 2 18 4 25 6 6 1 18 6 25 11 7 4 16 5 19 2 3 -3 13 0 21 7 13 10 15 9
8 -3 -4 -8 0 -6 9 5 9 11 18 19 20 18 15 -9 35 -1 29 9 -5 9 -2 9 9 -1 12 -9
17 -10 17 -2 0 7 5 9 10 6 6 -3 10 -1 10 5 0 6 4 8 10 5 5 -3 20 1 33 10 13 8
27 12 30 8 4 -3 7 -1 7 5 0 7 9 12 19 12 11 0 23 5 26 10 4 6 11 8 16 5 5 -4
9 -1 9 5 0 7 7 10 15 6 8 -3 18 2 23 10 5 9 12 15 16 14 13 -2 136 61 136 71
0 5 5 9 11 9 5 0 7 -6 4 -12 -4 -7 3 -2 15 12 12 14 24 24 26 23 11 -6 33 11
27 21 -3 6 -3 8 2 4 11 -10 47 11 40 22 -3 6 0 7 8 4 8 -3 20 2 27 10 7 9 16
13 21 10 5 -3 9 2 9 11 0 9 4 14 9 11 5 -3 12 1 15 9 3 8 9 14 13 13 4 -1 20
9 35 23 22 20 25 28 15 38 -9 10 -8 11 6 5 11 -4 4 7 -15 27 -20 20 -36 30
-40 24 -5 -6 -8 -4 -8 4 0 15 -54 71 -69 71 -5 0 -12 9 -16 20 -3 11 -9 19
-13 17 -4 -1 -17 8 -29 20 -18 18 -19 23 -8 23 9 0 18 7 21 15 4 8 12 15 19
15 8 0 26 15 40 32 15 18 24 26 19 18 -4 -8 2 -6 13 5 17 16 18 23 8 35 -7 8
-16 25 -19 38 -4 12 -12 22 -18 22 -6 0 -8 3 -5 6 4 4 -3 15 -15 25 -11 11
-17 19 -12 19 5 0 1 7 -9 14 -10 8 -19 18 -20 23 -1 4 -5 7 -9 6 -4 -2 -5 4
-2 12 4 8 1 15 -7 15 -7 0 -9 3 -6 6 4 4 -3 15 -14 25 -16 14 -20 25 -15 44 4
14 10 24 14 22 4 -2 27 16 51 40 26 26 36 41 25 38 -12 -3 -10 -1 4 6 13 7 21
18 18 26 -3 7 0 12 7 10 7 -1 11 4 9 11 -1 6 3 12 9 12 5 0 8 4 4 9 -3 5 1 15
8 23 7 7 12 25 12 40 -1 15 2 25 6 22 4 -2 10 3 13 12 9 23 8 26 -6 18 -8 -5
-7 0 2 11 8 10 14 20 13 22 -2 1 -3 4 -2 6 5 16 9 49 11 82 1 22 7 43 13 47 6
5 5 8 -4 8 -10 0 -11 3 -3 13 6 7 9 26 6 41 -3 20 -1 25 7 20 8 -5 9 -3 4 6
-4 7 -8 32 -8 57 0 24 -4 46 -8 49 -4 2 -6 11 -2 19 3 9 -1 15 -8 15 -11 0
-11 2 -2 8 10 6 9 14 -2 36 -8 16 -15 37 -15 48 0 11 -4 16 -11 12 -7 -4 -7 1
1 16 8 15 8 20 1 16 -6 -4 -12 -2 -12 3 -1 6 -2 17 -3 24 -1 6 -7 11 -13 10
-6 -1 -9 6 -5 19 3 14 1 19 -6 14 -8 -5 -10 -2 -6 8 3 9 1 16 -5 16 -6 0 -8 7
-4 17 4 11 3 14 -5 9 -8 -5 -12 2 -12 19 0 14 -4 24 -9 21 -5 -3 -12 5 -15 19
-4 14 -11 25 -17 25 -6 0 -7 5 -4 10 3 6 1 10 -4 10 -6 0 -11 6 -11 14 0 7 -7
19 -15 26 -8 7 -13 15 -10 19 2 4 -5 13 -15 21 -10 8 -17 17 -14 22 3 4 0 8
-5 8 -6 0 -11 3 -10 8 2 14 -13 52 -20 48 -3 -2 -7 17 -9 42 -1 25 -7 49 -13
53 -8 4 -8 9 -1 13 6 3 9 17 7 31 -1 14 2 25 6 25 5 0 8 6 6 13 -1 6 4 11 11
9 8 -1 11 1 8 6 -10 17 55 56 94 57 8 0 17 11 18 24 2 15 0 21 -7 17 -6 -4
-11 -2 -11 4 0 6 -8 14 -17 17 -10 4 -28 17 -41 30 -13 13 -29 20 -35 17 -7
-4 -9 -4 -5 0 9 10 -42 57 -54 50 -4 -3 -7 0 -6 8 2 7 -3 12 -9 11 -7 -2 -13
5 -14 15 0 9 -3 12 -5 5 -3 -7 -16 -1 -33 18 -15 16 -31 26 -34 22 -4 -3 -7 1
-7 11 0 9 -4 14 -10 11 -5 -3 -10 -1 -10 5 0 6 -12 15 -26 20 -15 6 -22 14
-18 22 4 7 3 8 -4 4 -7 -4 -12 -3 -12 2 0 5 -11 15 -25 22 -13 7 -22 17 -19
22 3 5 2 8 -3 7 -21 -4 -33 2 -33 16 0 8 -3 14 -7 14 -21 -3 -33 3 -33 17 0 8
-4 12 -10 9 -5 -3 -10 -2 -10 3 0 6 -9 8 -20 5 -11 -3 -20 -8 -20 -12 0 -4
-14 -15 -30 -25 -17 -9 -28 -22 -25 -27 4 -5 -1 -9 -9 -9 -9 0 -16 -5 -16 -12
0 -6 -3 -8 -7 -5 -3 4 -12 -2 -20 -13 -8 -11 -21 -20 -29 -20 -8 0 -14 -5 -14
-11 0 -6 -6 -9 -14 -6 -8 3 -16 1 -18 -5 -4 -12 -78 -39 -90 -32 -4 3 -8 1 -8
-4 0 -5 -6 -9 -12 -9 -7 0 -21 -4 -30 -8 -10 -4 -18 -3 -18 2 0 5 -7 10 -15
10 -8 0 -12 -4 -9 -9 3 -4 1 -8 -5 -8 -5 0 -13 5 -16 10 -4 6 -12 7 -18 3 -17
-10 -37 -13 -37 -4 0 4 -12 8 -27 9 -15 1 -29 6 -32 11 -3 4 -17 7 -29 6 -13
-1 -26 4 -29 12 -3 7 -12 13 -20 13 -9 0 -22 8 -30 18 -10 11 -12 12 -8 2 4
-10 2 -9 -8 2 -8 10 -16 15 -19 12 -3 -3 -17 6 -31 20 -15 14 -32 26 -39 26
-7 1 -24 14 -38 30 -13 17 -30 30 -38 30 -7 0 -10 5 -7 10 11 18 -2 10 -34
-20z"/>
</g>
</svg>
